# xmcd
#
# Track frame offsets: 
#        150
#        12190
#        26140
#        40750
#        52442
#        65875
#        78547
#        91660
#        103092
#        115930
#        128612
#        138572
#        153630
#        166227
#        177787
#        190147
#
# Disc length: 2692 seconds
#
# Revision: 0
# Processed by: cddbd v1.5.2PL0 Copyright (c) Steve Scherf et al.
# Submitted via: ExactAudioCopy v0.95b4
#
DISCID=db0a8210
DTITLE=Various Artist - Chess Blues Rarities Vol. 6
DYEAR=1900
DGENRE=Blues
TTITLE0=Howlin Wolf - Going Back Home
TTITLE1=Little Walter - Juke (Alt)
TTITLE2=Rocky Fuller - Funeral Hearse At My Door
TTITLE3=Blue Smitty - Date Bait
TTITLE4=Memphis Minnie - Lake Michigan
TTITLE5=Little Joe E. Lee - What Kind Of Gal Is That?
TTITLE6=Sonny Boy Williamson - I Don't Know (Alt Take)
TTITLE7=Percy Mayfield - Would You Call Me A Fool
TTITLE8=Muddy Waters - All Night Long
TTITLE9=John Brim - Gary Stomp
TTITLE10=Floyd Jones - Overseas
TTITLE11=Eddie Boyd - Got Lonesome Here
TTITLE12=Alberta Hunter -  Messing Around With The Blues
TTITLE13=Willie Mabon - I'm Mad (Alt Take)
TTITLE14=Floyd Dixon - Alarm Clock Blues
TTITLE15=Lowell Fulson - Don't Drive Me Baby
EXTD=
EXTT0=
EXTT1=
EXTT2=
EXTT3=
EXTT4=
EXTT5=
EXTT6=
EXTT7=
EXTT8=
EXTT9=
EXTT10=
EXTT11=
EXTT12=
EXTT13=
EXTT14=
EXTT15=
PLAYORDER=
